<?xml version="1.0" encoding="UTF-8"?>
<svg version="1.1" viewBox="0 0 1574.2 1078.2" xml:space="preserve" xmlns="http://www.w3.org/2000/svg"><g transform="translate(-178.67 -538.06)"><g transform="matrix(.13333 0 0 -.13333 -1441.2 3172.9)"><path d="m15160 13696c-151.45-33.657-322.96-96.512-501.5-161.95-181.77-66.609-367.58-150.46-556.09-218.3 302.56-322.31 1618.1 310.06 2209.2-242.45 259.22-242.22 559.78-830.32 462.86-1399-78.864 494.76-394.32 1007-616.6 1175.3-533.93 404.23-1746.7-224.86-2270.2 397.95-293.82-78.571-592.85-88.832-892.2 91.704-198.92 120.03-448.05 477.64-622.68 845.75-166.04 349.99-268.84 721.79-205.67 929.83 76.654 252.42 557.33 478.52 1040.9 706.02 362.27 170.39 726.34 341.61 872.4 492.88 159.13 164.76 238.17 391.8 317.21 619.01 89.827 258.05 179.66 516.28 384.47 724.31 158.96 161.48 502.67 251.72 884.09 293.53 500.21 54.882 1080.4 31.369 1362.9-22.75 295.93-56.7 568.64-182.76 816.78-358.96 150.1 239.11 296.11 446.91 459.11 642.75 263.33 316.39 566 595.26 995.09 915.64 298.16 222.64 628.62 434.07 927.66 547.12 260.92 98.565 502.73 123.02 691.95 21.754 315.63-169.04 214.66-961.2 145.3-1505.2-12.196-96.161-23.396-183.7-30.9-257.06 1043.4-446.5 1108.4-695.23 1193.2-1020.4 42.276-162.3 90.707-348 344.71-613.55 112.7-117.8 321.9-170.68 530.12-223.34 271.36-68.543 541.37-136.79 698.63-354.44 136.38-188.8 177.13-417.42 142.83-657.3-32.366-226.56-132.28-463.39-281.09-683.86-146.06-216.42-340.84-419.06-565.94-581.72-89.066-64.322-184.99-116.45-285.67-157.67-160.37-273.41-271.71-421.46-412.38-503.85-441.87-258.64-1555.9 33.54-2040.8-333.57-222.28-168.28-274.7-460.11-353.62-954.86-96.864 568.64-59.339 936.34 199.89 1178.6 617.72 577.32 1558.3 143.66 2085.8 348.29 78.922 30.607 148.93 84.316 221.81 176.08-238.29-47.493-490.07-47.317-732.46-12.723 881.34 85.371 1389.2 583.36 1663.5 989.75 89.887 133.16 158.61 271.42 200.59 406.69-405.22 232.02-490.77 346.94-445.74 841.47-52.067 14.659-105.84 28.261-159.66 41.864-244.45 61.801-490.07 123.9-656.65 298.04-302.2 315.92-359.78 536.74-410.09 729.71-68.133 261.39-119.79 459.7-1127.8 879.7l-87.131 36.295 5.687 93.874c5.394 88.773 21.871 218.24 40.868 367.11 59.983 470.6 147.29 1155.8-7.388 1238.7-112.75 60.335-281.15 36.647-474.12-36.295-271.24-102.49-580.19-301.2-862.28-511.82-413.73-308.95-702.86-574.5-950.53-872.13-158.84-190.8-302.73-397.37-453.13-638.94 269.07-234.6 504.73-528.71 704.44-851.9 597.43-966.89 811.62-1690.2 706.25-2360.3-105.13-669.2-525.48-1266.6-1198.5-1987.7l-112.46-120.5-170.8 247.73c-799.13 1158.8-1206.7 1749.8-1198.3 2508.2 4.045 363.48 96.454 750.05 239.76 1135.8 141.78 381.59 332.28 761.14 535.28 1115.5 50.309 87.833 99.034 171.56 146.76 251.78-222.22 160.54-465.56 275.06-728.24 325.36-263.39 50.485-809.63 71.828-1285.1 19.644-327.47-35.943-613.02-103.67-723.38-215.78-163.12-165.7-243.22-395.78-323.25-625.75-88.655-254.77-177.25-509.36-376.32-715.46-179.6-185.93-566.35-367.87-951.24-548.94-75.569-35.532-151.05-71.065-224.38-106.19 235.14-535.51-3.359-859.82-542.77-1044.5 18.581-43.86 38.511-88.187 59.525-132.46 155.24-327.24 364.68-637.94 519.99-731.58 911.14-549.64 1456.5 223.05 2027.7 129.52zm2621.5 3246c189.74-920.33 293.7-2161.3 181.83-3056.4 352.45 1170.2 354.62 1921.8 177.14 3060.6 144.01-161.6 275.58-341.9 394.02-533.58 561.6-908.95 764.83-1577.2 669.96-2180.9-89.36-568.52-446.21-1096.5-1019.2-1726.3-756.62 1097.1-1142.4 1661.5-1135 2331.5 3.636 329.64 89.711 686.26 223.16 1045.5 132.87 357.56 313.75 718.74 508.13 1059.5"/><path d="m15300 15944c150.98-50.953 340.32-132.22 364.88-100.09 87.013 113.69-197.25 295.11-283.73 339.55-86.251 44.386-160.84 67.781-240.4 66.08-55.41-1.173-139.14-24.392-220.06-61.389-107.65-49.312-210.5-123.08-235.24-202.06-20.17-64.439 27.147-101.26 97.041-85.841 10.202 2.228 20.931 5.63 31.955 10.203 196.07 81.091 285.26 101.14 485.55 33.538" style="fill-rule:evenodd;fill:#fefefe"/><path d="m21467 15923c-102.32-72.766-226.62-177.08-252.48-158.37-91.411 65.964 81.795 267.32 136.85 320.5 54.941 53.065 105.95 87.659 166.35 104.49 42.041 11.669 110.41 13.193 179.89 3.635 92.409-12.665 186.69-44.972 223.28-98.916 29.904-43.977 2.521-82.558-53.651-86.78-8.267-0.645-17.062-0.527-26.444 0.411-166.29 16.652-238.12 11.492-373.8-84.962" style="fill-rule:evenodd;fill:#fff"/><path d="m19565 17700c356.32-140.61 696.34-16.476 875.3 185.7-210.79-69.482-349.58-81.679-533.05-23.396l537.44 1148.8-879.7-1311.1" style="fill-rule:evenodd;fill:#fff"/><path d="m19205 14232c94.871 603.76-108.36 1272-669.96 2180.9-118.44 191.68-250.02 371.98-394.02 533.58 177.49-1138.8 175.32-1890.4-177.14-3060.6 111.88 895.12 7.916 2136.1-181.83 3056.4-194.37-340.73-375.26-701.92-508.13-1059.5-133.45-359.25-219.53-715.87-223.16-1045.5-7.447-670.08 378.37-1234.4 1135-2331.5 573.04 629.74 929.89 1157.7 1019.2 1726.3" style="fill-rule:evenodd;fill:#fff"/></g></g></svg>
